%TF.GenerationSoftware,KiCad,Pcbnew,7.0.10*%
%TF.CreationDate,2024-02-12T11:39:43+01:00*%
%TF.ProjectId,EntangledHearts,456e7461-6e67-46c6-9564-486561727473,rev?*%
%TF.SameCoordinates,Original*%
%TF.FileFunction,Profile,NP*%
%FSLAX46Y46*%
G04 Gerber Fmt 4.6, Leading zero omitted, Abs format (unit mm)*
G04 Created by KiCad (PCBNEW 7.0.10) date 2024-02-12 11:39:43*
%MOMM*%
%LPD*%
G01*
G04 APERTURE LIST*
%TA.AperFunction,Profile*%
%ADD10C,0.100000*%
%TD*%
G04 APERTURE END LIST*
D10*
X196850000Y-71120000D02*
X196850000Y-74930000D01*
X110490000Y-71120000D02*
G75*
G03*
X110490000Y-73660000I0J-1270000D01*
G01*
X87630000Y-132080000D02*
X92710000Y-132080000D01*
X105410000Y-73660000D02*
G75*
G03*
X105410000Y-71120000I0J1270000D01*
G01*
X171450000Y-73660000D02*
G75*
G03*
X171450000Y-71120000I0J1270000D01*
G01*
X137160000Y-132080000D02*
X158750000Y-132080000D01*
X208280000Y-127000000D02*
G75*
G03*
X208280000Y-129540000I0J-1270000D01*
G01*
X214630000Y-71120000D02*
X214630000Y-74930000D01*
X196850000Y-77470000D02*
X196850000Y-127000000D01*
X176530000Y-73660000D02*
X181610000Y-73660000D01*
X137160000Y-71120000D02*
G75*
G03*
X137160000Y-73660000I0J-1270000D01*
G01*
X203200000Y-129540000D02*
X196850000Y-129540000D01*
X176530000Y-71120000D02*
G75*
G03*
X176530000Y-73660000I0J-1270000D01*
G01*
X203200000Y-129540000D02*
G75*
G03*
X203200000Y-127000000I0J1270000D01*
G01*
X163830000Y-129540000D02*
G75*
G03*
X163830000Y-132080000I0J-1270000D01*
G01*
X163830000Y-71120000D02*
G75*
G03*
X163830000Y-73660000I0J-1270000D01*
G01*
X158750000Y-73660000D02*
G75*
G03*
X158750000Y-71120000I0J1270000D01*
G01*
X87630000Y-129540000D02*
X73660000Y-115570000D01*
X137160000Y-71120000D02*
X158750000Y-71120000D01*
X110490000Y-129540000D02*
G75*
G03*
X110490000Y-132080000I0J-1270000D01*
G01*
X143510000Y-121920000D02*
X143510000Y-129540000D01*
X133350000Y-93980000D02*
X133350000Y-109220000D01*
X132080000Y-73660000D02*
G75*
G03*
X132080000Y-71120000I0J1270000D01*
G01*
X203200000Y-77470000D02*
X196850000Y-77470000D01*
X115570000Y-73660000D02*
X129540000Y-87630000D01*
X171450000Y-132080000D02*
G75*
G03*
X171450000Y-129540000I0J1270000D01*
G01*
X87630000Y-67310000D02*
X87630000Y-71120000D01*
X92710000Y-73660000D02*
G75*
G03*
X92710000Y-71120000I0J1270000D01*
G01*
X129540000Y-115570000D02*
X115570000Y-129540000D01*
X97790000Y-71120000D02*
G75*
G03*
X97790000Y-73660000I0J-1270000D01*
G01*
X153670000Y-73660000D02*
X158750000Y-73660000D01*
X137160000Y-88900000D02*
X137160000Y-73660000D01*
X208280000Y-127000000D02*
X214630000Y-127000000D01*
X97790000Y-71120000D02*
X105410000Y-71120000D01*
X97790000Y-73660000D02*
X105410000Y-73660000D01*
X129540000Y-93980000D02*
X133350000Y-93980000D01*
X73660000Y-87630000D02*
X87630000Y-73660000D01*
X163830000Y-132080000D02*
X171450000Y-132080000D01*
X92710000Y-132080000D02*
G75*
G03*
X92710000Y-129540000I0J1270000D01*
G01*
X97790000Y-132080000D02*
X105410000Y-132080000D01*
X158750000Y-132080000D02*
G75*
G03*
X158750000Y-129540000I0J1270000D01*
G01*
X129540000Y-87630000D02*
X129540000Y-93980000D01*
X208280000Y-74930000D02*
G75*
G03*
X208280000Y-77470000I0J-1270000D01*
G01*
X214630000Y-135890000D02*
X87630000Y-135890000D01*
X176530000Y-132080000D02*
X196850000Y-132080000D01*
X129540000Y-109220000D02*
X129540000Y-115570000D01*
X196850000Y-127000000D02*
X203200000Y-127000000D01*
X214630000Y-77470000D02*
X208280000Y-77470000D01*
X139700000Y-115570000D02*
X139700000Y-87630000D01*
X163830000Y-71120000D02*
X171450000Y-71120000D01*
X196850000Y-74930000D02*
X203200000Y-74930000D01*
X137160000Y-129540000D02*
G75*
G03*
X137160000Y-132080000I0J-1270000D01*
G01*
X92710000Y-129540000D02*
X87630000Y-129540000D01*
X171450000Y-129540000D02*
X163830000Y-129540000D01*
X132080000Y-73660000D02*
X132080000Y-88900000D01*
X153670000Y-129540000D02*
X139700000Y-115570000D01*
X110490000Y-73660000D02*
X115570000Y-73660000D01*
X105410000Y-129540000D02*
X97790000Y-129540000D01*
X214630000Y-67310000D02*
X214630000Y-71120000D01*
X87630000Y-71120000D02*
X92710000Y-71120000D01*
X115570000Y-129540000D02*
X110490000Y-129540000D01*
X139700000Y-87630000D02*
X153670000Y-73660000D01*
X105410000Y-132080000D02*
G75*
G03*
X105410000Y-129540000I0J1270000D01*
G01*
X203200000Y-77470000D02*
G75*
G03*
X203200000Y-74930000I0J1270000D01*
G01*
X133350000Y-109220000D02*
X129540000Y-109220000D01*
X110490000Y-132080000D02*
X132080000Y-132080000D01*
X181610000Y-129540000D02*
X176530000Y-129540000D01*
X87630000Y-67310000D02*
X214630000Y-67310000D01*
X125730000Y-121920000D02*
X143510000Y-121920000D01*
X171450000Y-73660000D02*
X163830000Y-73660000D01*
X87630000Y-73660000D02*
X92710000Y-73660000D01*
X208280000Y-129540000D02*
X214630000Y-129540000D01*
X196850000Y-129540000D02*
X196850000Y-132080000D01*
X214630000Y-127000000D02*
X214630000Y-77470000D01*
X195580000Y-87630000D02*
X195580000Y-115570000D01*
X110490000Y-71120000D02*
X132080000Y-71120000D01*
X214630000Y-129540000D02*
X214630000Y-135890000D01*
X158750000Y-129540000D02*
X153670000Y-129540000D01*
X195580000Y-115570000D02*
X181610000Y-129540000D01*
X143510000Y-129540000D02*
X137160000Y-129540000D01*
X87630000Y-135890000D02*
X87630000Y-132080000D01*
X97790000Y-129540000D02*
G75*
G03*
X97790000Y-132080000I0J-1270000D01*
G01*
X125730000Y-129540000D02*
X125730000Y-121920000D01*
X132080000Y-88900000D02*
X137160000Y-88900000D01*
X176530000Y-129540000D02*
G75*
G03*
X176530000Y-132080000I0J-1270000D01*
G01*
X214630000Y-74930000D02*
X208280000Y-74930000D01*
X132080000Y-129540000D02*
X125730000Y-129540000D01*
X132080000Y-132080000D02*
G75*
G03*
X132080000Y-129540000I0J1270000D01*
G01*
X73660000Y-115570000D02*
X73660000Y-87630000D01*
X181610000Y-73660000D02*
X195580000Y-87630000D01*
X176530000Y-71120000D02*
X196850000Y-71120000D01*
M02*
