M48
; DRILL file {KiCad 7.0.10} date Mon Feb 12 11:41:48 2024
; FORMAT={-:-/ absolute / inch / decimal}
; #@! TF.CreationDate,2024-02-12T11:41:48+01:00
; #@! TF.GenerationSoftware,Kicad,Pcbnew,7.0.10
; #@! TF.FileFunction,NonPlated,1,2,NPTH
FMAT,2
INCH
; #@! TA.AperFunction,NonPlated,NPTH,ComponentDrill
T1C0.0197
%
G90
G05
T1
X3.7185Y-2.8067
X3.7185Y-2.8933
X3.7185Y-5.1067
X3.7185Y-5.1933
X3.75Y-2.8067
X3.75Y-2.8933
X3.75Y-5.1067
X3.75Y-5.1933
X3.7815Y-2.8067
X3.7815Y-2.8933
X3.7815Y-5.1067
X3.7815Y-5.1933
X4.2185Y-2.8067
X4.2185Y-2.8933
X4.2185Y-5.1067
X4.2185Y-5.1933
X4.25Y-2.8067
X4.25Y-2.8933
X4.25Y-5.1067
X4.25Y-5.1933
X4.2815Y-2.8067
X4.2815Y-2.8933
X4.2815Y-5.1067
X4.2815Y-5.1933
X5.2685Y-2.8067
X5.2685Y-2.8933
X5.2685Y-5.1067
X5.2685Y-5.1933
X5.3Y-2.8067
X5.3Y-2.8933
X5.3Y-5.1067
X5.3Y-5.1933
X5.3315Y-2.8067
X5.3315Y-2.8933
X5.3315Y-5.1067
X5.3315Y-5.1933
X6.3185Y-2.8067
X6.3185Y-2.8933
X6.3185Y-5.1067
X6.3185Y-5.1933
X6.35Y-2.8067
X6.35Y-2.8933
X6.35Y-5.1067
X6.35Y-5.1933
X6.3815Y-2.8067
X6.3815Y-2.8933
X6.3815Y-5.1067
X6.3815Y-5.1933
X6.8185Y-2.8067
X6.8185Y-2.8933
X6.8185Y-5.1067
X6.8185Y-5.1933
X6.85Y-2.8067
X6.85Y-2.8933
X6.85Y-5.1067
X6.85Y-5.1933
X6.8815Y-2.8067
X6.8815Y-2.8933
X6.8815Y-5.1067
X6.8815Y-5.1933
X8.0685Y-2.9567
X8.0685Y-3.0433
X8.0685Y-5.0067
X8.0685Y-5.0933
X8.1Y-2.9567
X8.1Y-3.0433
X8.1Y-5.0067
X8.1Y-5.0933
X8.1315Y-2.9567
X8.1315Y-3.0433
X8.1315Y-5.0067
X8.1315Y-5.0933
M30
