M48
; DRILL file {KiCad 7.0.10} date Mon Feb 12 11:41:48 2024
; FORMAT={-:-/ absolute / inch / decimal}
; #@! TF.CreationDate,2024-02-12T11:41:48+01:00
; #@! TF.GenerationSoftware,Kicad,Pcbnew,7.0.10
; #@! TF.FileFunction,Plated,1,2,PTH
FMAT,2
INCH
; #@! TA.AperFunction,Plated,PTH,ViaDrill
T1C0.0157
; #@! TA.AperFunction,Plated,PTH,ComponentDrill
T2C0.0394
%
G90
G05
T1
X3.35Y-3.4
X3.35Y-4.25
X3.45Y-3.55
X3.5Y-3.2
X3.55Y-5.0
X3.6Y-3.2
X3.7Y-4.8
X3.75Y-3.55
X3.75Y-4.15
X3.85Y-3.1
X3.85Y-4.25
X3.95Y-3.2
X4.05Y-3.3
X4.05Y-4.55
X4.1Y-4.0
X4.1Y-4.1
X4.2Y-4.2
X4.55Y-4.05
X4.65Y-4.1
X4.7Y-4.2
X4.75Y-3.3
X4.75Y-3.5
X5.2157Y-3.2657
X5.3Y-4.85
X5.3Y-5.05
X5.3657Y-3.1
X5.8Y-3.75
X5.85Y-4.25
X6.0Y-3.45
X6.0Y-4.55
X6.4Y-3.35
X6.45Y-3.25
X6.45Y-4.75
X6.75Y-3.25
X6.75Y-3.85
X6.75Y-3.95
X6.75Y-4.75
X6.8Y-4.1
X6.9Y-4.05
X7.2Y-3.45
X7.2Y-4.55
X7.35Y-3.75
X7.4Y-4.25
X8.0Y-3.55
X8.1Y-3.55
X8.1Y-4.45
X8.15Y-3.65
X8.2Y-4.45
X8.25Y-4.05
X8.3Y-3.55
T2
X6.45Y-3.55
X6.55Y-3.55
X6.65Y-3.55
X6.75Y-3.55
M30
