%TF.GenerationSoftware,KiCad,Pcbnew,7.0.10*%
%TF.CreationDate,2024-02-12T11:39:43+01:00*%
%TF.ProjectId,EntangledHearts,456e7461-6e67-46c6-9564-486561727473,rev?*%
%TF.SameCoordinates,Original*%
%TF.FileFunction,Soldermask,Bot*%
%TF.FilePolarity,Negative*%
%FSLAX46Y46*%
G04 Gerber Fmt 4.6, Leading zero omitted, Abs format (unit mm)*
G04 Created by KiCad (PCBNEW 7.0.10) date 2024-02-12 11:39:43*
%MOMM*%
%LPD*%
G01*
G04 APERTURE LIST*
G04 Aperture macros list*
%AMRoundRect*
0 Rectangle with rounded corners*
0 $1 Rounding radius*
0 $2 $3 $4 $5 $6 $7 $8 $9 X,Y pos of 4 corners*
0 Add a 4 corners polygon primitive as box body*
4,1,4,$2,$3,$4,$5,$6,$7,$8,$9,$2,$3,0*
0 Add four circle primitives for the rounded corners*
1,1,$1+$1,$2,$3*
1,1,$1+$1,$4,$5*
1,1,$1+$1,$6,$7*
1,1,$1+$1,$8,$9*
0 Add four rect primitives between the rounded corners*
20,1,$1+$1,$2,$3,$4,$5,0*
20,1,$1+$1,$4,$5,$6,$7,0*
20,1,$1+$1,$6,$7,$8,$9,0*
20,1,$1+$1,$8,$9,$2,$3,0*%
G04 Aperture macros list end*
%ADD10C,0.500000*%
%ADD11R,1.700000X1.700000*%
%ADD12O,1.700000X1.700000*%
%ADD13R,1.500000X1.500000*%
%ADD14RoundRect,0.250000X0.536362X0.020994X0.286362X0.454006X-0.536362X-0.020994X-0.286362X-0.454006X0*%
%ADD15RoundRect,0.250000X-0.250000X-0.475000X0.250000X-0.475000X0.250000X0.475000X-0.250000X0.475000X0*%
%ADD16RoundRect,0.250000X-0.262500X-0.450000X0.262500X-0.450000X0.262500X0.450000X-0.262500X0.450000X0*%
%ADD17R,1.000000X2.510000*%
%ADD18RoundRect,0.250000X0.286362X-0.454006X0.536362X-0.020994X-0.286362X0.454006X-0.536362X0.020994X0*%
%ADD19RoundRect,0.250000X0.250000X0.475000X-0.250000X0.475000X-0.250000X-0.475000X0.250000X-0.475000X0*%
%ADD20RoundRect,0.250000X-0.536362X-0.020994X-0.286362X-0.454006X0.536362X0.020994X0.286362X0.454006X0*%
%ADD21RoundRect,0.250000X-0.286362X0.454006X-0.536362X0.020994X0.286362X-0.454006X0.536362X-0.020994X0*%
G04 APERTURE END LIST*
D10*
%TO.C,mouse-bite-2.54mm-slot*%
X107150000Y-71290000D03*
X107150000Y-73490000D03*
X107950000Y-71290000D03*
X107950000Y-73490000D03*
X108750000Y-71290000D03*
X108750000Y-73490000D03*
%TD*%
%TO.C,mouse-bite-2.54mm-slot*%
X133820000Y-129710000D03*
X133820000Y-131910000D03*
X134620000Y-129710000D03*
X134620000Y-131910000D03*
X135420000Y-129710000D03*
X135420000Y-131910000D03*
%TD*%
%TO.C,mouse-bite-2.54mm-slot*%
X204940000Y-127170000D03*
X204940000Y-129370000D03*
X205740000Y-127170000D03*
X205740000Y-129370000D03*
X206540000Y-127170000D03*
X206540000Y-129370000D03*
%TD*%
%TO.C,mouse-bite-2.54mm-slot*%
X133820000Y-71290000D03*
X133820000Y-73490000D03*
X134620000Y-71290000D03*
X134620000Y-73490000D03*
X135420000Y-71290000D03*
X135420000Y-73490000D03*
%TD*%
%TO.C,mouse-bite-2.54mm-slot*%
X94450000Y-129710000D03*
X94450000Y-131910000D03*
X95250000Y-129710000D03*
X95250000Y-131910000D03*
X96050000Y-129710000D03*
X96050000Y-131910000D03*
%TD*%
%TO.C,mouse-bite-2.54mm-slot*%
X173190000Y-129710000D03*
X173190000Y-131910000D03*
X173990000Y-129710000D03*
X173990000Y-131910000D03*
X174790000Y-129710000D03*
X174790000Y-131910000D03*
%TD*%
%TO.C,mouse-bite-2.54mm-slot*%
X160490000Y-71290000D03*
X160490000Y-73490000D03*
X161290000Y-71290000D03*
X161290000Y-73490000D03*
X162090000Y-71290000D03*
X162090000Y-73490000D03*
%TD*%
%TO.C,mouse-bite-2.54mm-slot*%
X173190000Y-71290000D03*
X173190000Y-73490000D03*
X173990000Y-71290000D03*
X173990000Y-73490000D03*
X174790000Y-71290000D03*
X174790000Y-73490000D03*
%TD*%
%TO.C,mouse-bite-2.54mm-slot*%
X94450000Y-71290000D03*
X94450000Y-73490000D03*
X95250000Y-71290000D03*
X95250000Y-73490000D03*
X96050000Y-71290000D03*
X96050000Y-73490000D03*
%TD*%
%TO.C,mouse-bite-2.54mm-slot*%
X160490000Y-129710000D03*
X160490000Y-131910000D03*
X161290000Y-129710000D03*
X161290000Y-131910000D03*
X162090000Y-129710000D03*
X162090000Y-131910000D03*
%TD*%
D11*
%TO.C,Display1*%
X171450000Y-90170000D03*
D12*
X168910000Y-90170000D03*
X166370000Y-90170000D03*
X163830000Y-90170000D03*
%TD*%
D10*
%TO.C,mouse-bite-2.54mm-slot*%
X204940000Y-75100000D03*
X204940000Y-77300000D03*
X205740000Y-75100000D03*
X205740000Y-77300000D03*
X206540000Y-75100000D03*
X206540000Y-77300000D03*
%TD*%
%TO.C,mouse-bite-2.54mm-slot*%
X107150000Y-129710000D03*
X107150000Y-131910000D03*
X107950000Y-129710000D03*
X107950000Y-131910000D03*
X108750000Y-129710000D03*
X108750000Y-131910000D03*
%TD*%
D13*
%TO.C,PhotoB2*%
X134620000Y-85090000D03*
%TD*%
D14*
%TO.C,C_NP2*%
X185895000Y-92262724D03*
X184945000Y-90617276D03*
%TD*%
D13*
%TO.C,PhotoA2*%
X134620000Y-77470000D03*
%TD*%
%TO.C,NeoPixel2*%
X156210000Y-90170000D03*
%TD*%
D15*
%TO.C,C_NP4*%
X166690000Y-120650000D03*
X168590000Y-120650000D03*
%TD*%
D16*
%TO.C,R_NP1*%
X159107500Y-85090000D03*
X160932500Y-85090000D03*
%TD*%
D13*
%TO.C,SDA1*%
X109220000Y-101600000D03*
%TD*%
D17*
%TO.C,MPU1*%
X176530000Y-112530000D03*
X173990000Y-109220000D03*
X171450000Y-112530000D03*
X168910000Y-109220000D03*
X166370000Y-112530000D03*
X163830000Y-109220000D03*
X161290000Y-112530000D03*
X158750000Y-109220000D03*
%TD*%
D13*
%TO.C,ButtonB1*%
X90170000Y-124460000D03*
%TD*%
%TO.C,GND1*%
X109220000Y-109220000D03*
%TD*%
D18*
%TO.C,C_NP3*%
X184945000Y-112582724D03*
X185895000Y-110937276D03*
%TD*%
D19*
%TO.C,C_NP1*%
X168590000Y-82550000D03*
X166690000Y-82550000D03*
%TD*%
D13*
%TO.C,ButtonB2*%
X137160000Y-125730000D03*
%TD*%
%TO.C,NeoPixel1*%
X109220000Y-105410000D03*
%TD*%
%TO.C,SDA2*%
X179070000Y-96520000D03*
%TD*%
D20*
%TO.C,C_NP5*%
X149385000Y-110937276D03*
X150335000Y-112582724D03*
%TD*%
D13*
%TO.C,ButtonA1*%
X93980000Y-124460000D03*
%TD*%
%TO.C,VCC1*%
X109220000Y-93980000D03*
%TD*%
%TO.C,PhotoB1*%
X93980000Y-78740000D03*
%TD*%
D21*
%TO.C,C_NP6*%
X150335000Y-90617276D03*
X149385000Y-92262724D03*
%TD*%
D13*
%TO.C,SCL1*%
X109220000Y-97790000D03*
%TD*%
%TO.C,SCL2*%
X179070000Y-101600000D03*
%TD*%
%TO.C,GND2*%
X156210000Y-96520000D03*
%TD*%
%TO.C,ButtonA2*%
X132080000Y-125730000D03*
%TD*%
%TO.C,PhotoA1*%
X90170000Y-78740000D03*
%TD*%
%TO.C,VCC2*%
X156210000Y-101600000D03*
%TD*%
M02*
