%TF.GenerationSoftware,KiCad,Pcbnew,7.0.10*%
%TF.CreationDate,2024-02-12T11:39:43+01:00*%
%TF.ProjectId,EntangledHearts,456e7461-6e67-46c6-9564-486561727473,rev?*%
%TF.SameCoordinates,Original*%
%TF.FileFunction,Soldermask,Top*%
%TF.FilePolarity,Negative*%
%FSLAX46Y46*%
G04 Gerber Fmt 4.6, Leading zero omitted, Abs format (unit mm)*
G04 Created by KiCad (PCBNEW 7.0.10) date 2024-02-12 11:39:43*
%MOMM*%
%LPD*%
G01*
G04 APERTURE LIST*
G04 Aperture macros list*
%AMRoundRect*
0 Rectangle with rounded corners*
0 $1 Rounding radius*
0 $2 $3 $4 $5 $6 $7 $8 $9 X,Y pos of 4 corners*
0 Add a 4 corners polygon primitive as box body*
4,1,4,$2,$3,$4,$5,$6,$7,$8,$9,$2,$3,0*
0 Add four circle primitives for the rounded corners*
1,1,$1+$1,$2,$3*
1,1,$1+$1,$4,$5*
1,1,$1+$1,$6,$7*
1,1,$1+$1,$8,$9*
0 Add four rect primitives between the rounded corners*
20,1,$1+$1,$2,$3,$4,$5,0*
20,1,$1+$1,$4,$5,$6,$7,0*
20,1,$1+$1,$6,$7,$8,$9,0*
20,1,$1+$1,$8,$9,$2,$3,0*%
%AMRotRect*
0 Rectangle, with rotation*
0 The origin of the aperture is its center*
0 $1 length*
0 $2 width*
0 $3 Rotation angle, in degrees counterclockwise*
0 Add horizontal line*
21,1,$1,$2,0,0,$3*%
G04 Aperture macros list end*
%ADD10R,1.500000X0.900000*%
%ADD11R,0.900000X1.500000*%
%ADD12R,0.900000X0.900000*%
%ADD13RoundRect,0.250000X-0.250000X-1.500000X0.250000X-1.500000X0.250000X1.500000X-0.250000X1.500000X0*%
%ADD14RoundRect,0.250001X-0.499999X-1.449999X0.499999X-1.449999X0.499999X1.449999X-0.499999X1.449999X0*%
%ADD15RoundRect,0.250000X0.475000X-0.250000X0.475000X0.250000X-0.475000X0.250000X-0.475000X-0.250000X0*%
%ADD16R,1.550000X0.650000*%
%ADD17C,0.500000*%
%ADD18RoundRect,0.150000X0.150000X-0.512500X0.150000X0.512500X-0.150000X0.512500X-0.150000X-0.512500X0*%
%ADD19RoundRect,0.250000X-0.262500X-0.450000X0.262500X-0.450000X0.262500X0.450000X-0.262500X0.450000X0*%
%ADD20R,0.900000X1.000000*%
%ADD21RoundRect,0.250000X0.450000X-0.262500X0.450000X0.262500X-0.450000X0.262500X-0.450000X-0.262500X0*%
%ADD22RoundRect,0.250000X0.250000X0.475000X-0.250000X0.475000X-0.250000X-0.475000X0.250000X-0.475000X0*%
%ADD23RoundRect,0.250000X-0.450000X0.262500X-0.450000X-0.262500X0.450000X-0.262500X0.450000X0.262500X0*%
%ADD24R,1.200000X0.700000*%
%ADD25R,1.200000X0.760000*%
%ADD26R,1.200000X0.800000*%
%ADD27R,1.350000X1.800000*%
%ADD28R,1.500000X1.800000*%
%ADD29RoundRect,0.250000X-0.475000X0.250000X-0.475000X-0.250000X0.475000X-0.250000X0.475000X0.250000X0*%
%ADD30R,1.000000X2.510000*%
%ADD31RotRect,1.500000X0.900000X120.000000*%
%ADD32R,1.700000X1.700000*%
%ADD33O,1.700000X1.700000*%
%ADD34RotRect,1.500000X0.900000X60.000000*%
%ADD35R,1.250000X1.000000*%
%ADD36RotRect,1.500000X0.900000X240.000000*%
%ADD37R,1.200000X2.500000*%
%ADD38RoundRect,0.243750X-0.243750X-0.456250X0.243750X-0.456250X0.243750X0.456250X-0.243750X0.456250X0*%
%ADD39RotRect,1.500000X0.900000X300.000000*%
G04 APERTURE END LIST*
D10*
%TO.C,D4*%
X165190000Y-119000000D03*
X165190000Y-122300000D03*
X170090000Y-122300000D03*
X170090000Y-119000000D03*
%TD*%
D11*
%TO.C,ESP1*%
X83820000Y-110490000D03*
X85090000Y-110490000D03*
X86360000Y-110490000D03*
X87630000Y-110490000D03*
X88900000Y-110490000D03*
X90170000Y-110490000D03*
X91440000Y-110490000D03*
X92710000Y-110490000D03*
X93980000Y-110490000D03*
X95250000Y-110490000D03*
X96520000Y-110490000D03*
X97790000Y-110490000D03*
X99060000Y-110490000D03*
X100330000Y-110490000D03*
D10*
X101580000Y-108725000D03*
X101580000Y-107455000D03*
X101580000Y-106185000D03*
X101580000Y-104915000D03*
X101580000Y-103645000D03*
X101580000Y-102375000D03*
X101580000Y-101105000D03*
X101580000Y-99835000D03*
X101580000Y-98565000D03*
X101580000Y-97295000D03*
X101580000Y-96025000D03*
X101580000Y-94755000D03*
D11*
X100330000Y-92990000D03*
X99060000Y-92990000D03*
X97790000Y-92990000D03*
X96520000Y-92990000D03*
X95250000Y-92990000D03*
X93980000Y-92990000D03*
X92710000Y-92990000D03*
X91440000Y-92990000D03*
X90170000Y-92990000D03*
X88900000Y-92990000D03*
X87630000Y-92990000D03*
X86360000Y-92990000D03*
X85090000Y-92990000D03*
X83820000Y-92990000D03*
D12*
X90140000Y-104640000D03*
X91540000Y-104640000D03*
X92940000Y-104640000D03*
X92940000Y-104640000D03*
X90140000Y-103240000D03*
X90140000Y-103240000D03*
X91540000Y-103240000D03*
X92940000Y-103240000D03*
X90140000Y-101840000D03*
X91540000Y-101840000D03*
X92940000Y-101840000D03*
%TD*%
D13*
%TO.C,BatteryConnector1*%
X114570000Y-111450000D03*
X116570000Y-111450000D03*
D14*
X112220000Y-117200000D03*
X118920000Y-117200000D03*
%TD*%
D15*
%TO.C,C_EN1*%
X87630000Y-119060000D03*
X87630000Y-117160000D03*
%TD*%
D16*
%TO.C,Q_BOOT1*%
X204900000Y-107640000D03*
X204900000Y-105720000D03*
X203200000Y-106680000D03*
%TD*%
D17*
%TO.C,mouse-bite-2.54mm-slot*%
X107150000Y-71290000D03*
X107150000Y-73490000D03*
X107950000Y-71290000D03*
X107950000Y-73490000D03*
X108750000Y-71290000D03*
X108750000Y-73490000D03*
%TD*%
D18*
%TO.C,PM1*%
X116485000Y-98795000D03*
X117435000Y-98795000D03*
X118385000Y-98795000D03*
X118385000Y-96520000D03*
X116485000Y-96520000D03*
%TD*%
D19*
%TO.C,PU_SCL1*%
X105767500Y-101600000D03*
X107592500Y-101600000D03*
%TD*%
D17*
%TO.C,mouse-bite-2.54mm-slot*%
X133820000Y-129710000D03*
X133820000Y-131910000D03*
X134620000Y-129710000D03*
X134620000Y-131910000D03*
X135420000Y-129710000D03*
X135420000Y-131910000D03*
%TD*%
%TO.C,mouse-bite-2.54mm-slot*%
X204940000Y-127170000D03*
X204940000Y-129370000D03*
X205740000Y-127170000D03*
X205740000Y-129370000D03*
X206540000Y-127170000D03*
X206540000Y-129370000D03*
%TD*%
D20*
%TO.C,Button1*%
X132570000Y-126530000D03*
X136670000Y-126530000D03*
X136670000Y-124930000D03*
X132570000Y-124930000D03*
%TD*%
D16*
%TO.C,Q_EN1*%
X204900000Y-97480000D03*
X204900000Y-95560000D03*
X203200000Y-96520000D03*
%TD*%
D21*
%TO.C,PU_Photo1*%
X87630000Y-87272500D03*
X87630000Y-85447500D03*
%TD*%
D18*
%TO.C,BM1*%
X117160000Y-90037500D03*
X118110000Y-90037500D03*
X119060000Y-90037500D03*
X119060000Y-87762500D03*
X117160000Y-87762500D03*
%TD*%
D19*
%TO.C,PU_SDA1*%
X105767500Y-104140000D03*
X107592500Y-104140000D03*
%TD*%
D17*
%TO.C,mouse-bite-2.54mm-slot*%
X133820000Y-71290000D03*
X133820000Y-73490000D03*
X134620000Y-71290000D03*
X134620000Y-73490000D03*
X135420000Y-71290000D03*
X135420000Y-73490000D03*
%TD*%
D22*
%TO.C,C_Button1*%
X93660000Y-119380000D03*
X91760000Y-119380000D03*
%TD*%
D23*
%TO.C,R_DTR1*%
X209550000Y-105767500D03*
X209550000Y-107592500D03*
%TD*%
D17*
%TO.C,mouse-bite-2.54mm-slot*%
X94450000Y-129710000D03*
X94450000Y-131910000D03*
X95250000Y-129710000D03*
X95250000Y-131910000D03*
X96050000Y-129710000D03*
X96050000Y-131910000D03*
%TD*%
D22*
%TO.C,CP3*%
X116520000Y-106680000D03*
X114620000Y-106680000D03*
%TD*%
D19*
%TO.C,PD_Prog1*%
X117197500Y-85090000D03*
X119022500Y-85090000D03*
%TD*%
D24*
%TO.C,USB1*%
X126485000Y-102100000D03*
D25*
X126485000Y-100080000D03*
D26*
X126485000Y-98850000D03*
D24*
X126485000Y-101100000D03*
D25*
X126485000Y-103120000D03*
D26*
X126485000Y-104350000D03*
D27*
X126560000Y-106725000D03*
X126560000Y-96475000D03*
D28*
X130140000Y-106725000D03*
X130140000Y-96475000D03*
%TD*%
D17*
%TO.C,mouse-bite-2.54mm-slot*%
X173190000Y-129710000D03*
X173190000Y-131910000D03*
X173990000Y-129710000D03*
X173990000Y-131910000D03*
X174790000Y-129710000D03*
X174790000Y-131910000D03*
%TD*%
D21*
%TO.C,PU_EN1*%
X85090000Y-115212500D03*
X85090000Y-113387500D03*
%TD*%
D23*
%TO.C,R_RTS1*%
X209550000Y-95607500D03*
X209550000Y-97432500D03*
%TD*%
D29*
%TO.C,CP_CP1*%
X123190000Y-104140000D03*
X123190000Y-106040000D03*
%TD*%
D17*
%TO.C,mouse-bite-2.54mm-slot*%
X160490000Y-71290000D03*
X160490000Y-73490000D03*
X161290000Y-71290000D03*
X161290000Y-73490000D03*
X162090000Y-71290000D03*
X162090000Y-73490000D03*
%TD*%
D30*
%TO.C,Seriell_Output1*%
X210820000Y-116070000D03*
X208280000Y-119380000D03*
X205740000Y-116070000D03*
X203200000Y-119380000D03*
X200660000Y-116070000D03*
%TD*%
D17*
%TO.C,mouse-bite-2.54mm-slot*%
X173190000Y-71290000D03*
X173190000Y-73490000D03*
X173990000Y-71290000D03*
X173990000Y-73490000D03*
X174790000Y-71290000D03*
X174790000Y-73490000D03*
%TD*%
%TO.C,mouse-bite-2.54mm-slot*%
X94450000Y-71290000D03*
X94450000Y-73490000D03*
X95250000Y-71290000D03*
X95250000Y-73490000D03*
X96050000Y-71290000D03*
X96050000Y-73490000D03*
%TD*%
%TO.C,mouse-bite-2.54mm-slot*%
X160490000Y-129710000D03*
X160490000Y-131910000D03*
X161290000Y-129710000D03*
X161290000Y-131910000D03*
X162090000Y-129710000D03*
X162090000Y-131910000D03*
%TD*%
D19*
%TO.C,PU_Boot1*%
X101045000Y-90170000D03*
X102870000Y-90170000D03*
%TD*%
D31*
%TO.C,D2*%
X185102116Y-94360000D03*
X187960000Y-92710000D03*
X185510000Y-88466476D03*
X182652116Y-90116476D03*
%TD*%
D32*
%TO.C,Display1*%
X171450000Y-90170000D03*
D33*
X168910000Y-90170000D03*
X166370000Y-90170000D03*
X163830000Y-90170000D03*
%TD*%
D22*
%TO.C,CP6*%
X119335000Y-101555000D03*
X117435000Y-101555000D03*
%TD*%
D17*
%TO.C,mouse-bite-2.54mm-slot*%
X204940000Y-75100000D03*
X204940000Y-77300000D03*
X205740000Y-75100000D03*
X205740000Y-77300000D03*
X206540000Y-75100000D03*
X206540000Y-77300000D03*
%TD*%
D30*
%TO.C,Seriell_Flash1*%
X107950000Y-80895000D03*
X105410000Y-84205000D03*
X102870000Y-80895000D03*
X100330000Y-84205000D03*
X97790000Y-80895000D03*
%TD*%
D29*
%TO.C,CP4*%
X120925000Y-96795000D03*
X120925000Y-98695000D03*
%TD*%
D34*
%TO.C,D3*%
X182766058Y-113056762D03*
X185623942Y-114706762D03*
X188073942Y-110463238D03*
X185216058Y-108813238D03*
%TD*%
D17*
%TO.C,mouse-bite-2.54mm-slot*%
X107150000Y-129710000D03*
X107150000Y-131910000D03*
X107950000Y-129710000D03*
X107950000Y-131910000D03*
X108750000Y-129710000D03*
X108750000Y-131910000D03*
%TD*%
D29*
%TO.C,C_Boot1*%
X111760000Y-79060000D03*
X111760000Y-80960000D03*
%TD*%
D30*
%TO.C,Seriell_Input1*%
X210820000Y-83820000D03*
X208280000Y-87130000D03*
X205740000Y-83820000D03*
X203200000Y-87130000D03*
X200660000Y-83820000D03*
%TD*%
D23*
%TO.C,R_LED1*%
X121920000Y-90527500D03*
X121920000Y-92352500D03*
%TD*%
D35*
%TO.C,Photo1*%
X134620000Y-82380000D03*
X134620000Y-80180000D03*
%TD*%
D36*
%TO.C,D6*%
X152513942Y-90143238D03*
X149656058Y-88493238D03*
X147206058Y-92736762D03*
X150063942Y-94386762D03*
%TD*%
D37*
%TO.C,PowerSwitch1*%
X105410000Y-117900000D03*
X102910000Y-117900000D03*
X100410000Y-117900000D03*
X100410000Y-123400000D03*
X102910000Y-123400000D03*
X105410000Y-123400000D03*
%TD*%
D10*
%TO.C,D1*%
X170090000Y-84200000D03*
X170090000Y-80900000D03*
X165190000Y-80900000D03*
X165190000Y-84200000D03*
%TD*%
D29*
%TO.C,CP5*%
X114575000Y-99335000D03*
X114575000Y-101235000D03*
%TD*%
D38*
%TO.C,LED1*%
X117172500Y-92710000D03*
X119047500Y-92710000D03*
%TD*%
D29*
%TO.C,CP2*%
X123190000Y-84140000D03*
X123190000Y-86040000D03*
%TD*%
D39*
%TO.C,D5*%
X150063942Y-108813238D03*
X147206058Y-110463238D03*
X149656058Y-114706762D03*
X152513942Y-113056762D03*
%TD*%
M02*
