%TF.GenerationSoftware,KiCad,Pcbnew,7.0.9*%
%TF.CreationDate,2023-12-13T15:33:46+01:00*%
%TF.ProjectId,TestPCB_Small,54657374-5043-4425-9f53-6d616c6c2e6b,rev?*%
%TF.SameCoordinates,Original*%
%TF.FileFunction,Paste,Top*%
%TF.FilePolarity,Positive*%
%FSLAX46Y46*%
G04 Gerber Fmt 4.6, Leading zero omitted, Abs format (unit mm)*
G04 Created by KiCad (PCBNEW 7.0.9) date 2023-12-13 15:33:46*
%MOMM*%
%LPD*%
G01*
G04 APERTURE LIST*
%ADD10R,1.500000X0.900000*%
%ADD11R,0.900000X1.500000*%
%ADD12R,0.900000X0.900000*%
%ADD13R,0.900000X1.000000*%
G04 APERTURE END LIST*
G36*
G01*
X185665000Y-102190000D02*
X185665000Y-103090000D01*
G75*
G02*
X185415000Y-103340000I-250000J0D01*
G01*
X184890000Y-103340000D01*
G75*
G02*
X184640000Y-103090000I0J250000D01*
G01*
X184640000Y-102190000D01*
G75*
G02*
X184890000Y-101940000I250000J0D01*
G01*
X185415000Y-101940000D01*
G75*
G02*
X185665000Y-102190000I0J-250000D01*
G01*
G37*
G36*
G01*
X183840000Y-102190000D02*
X183840000Y-103090000D01*
G75*
G02*
X183590000Y-103340000I-250000J0D01*
G01*
X183065000Y-103340000D01*
G75*
G02*
X182815000Y-103090000I0J250000D01*
G01*
X182815000Y-102190000D01*
G75*
G02*
X183065000Y-101940000I250000J0D01*
G01*
X183590000Y-101940000D01*
G75*
G02*
X183840000Y-102190000I0J-250000D01*
G01*
G37*
G36*
G01*
X207460000Y-65641250D02*
X206560000Y-65641250D01*
G75*
G02*
X206310000Y-65391250I0J250000D01*
G01*
X206310000Y-64866250D01*
G75*
G02*
X206560000Y-64616250I250000J0D01*
G01*
X207460000Y-64616250D01*
G75*
G02*
X207710000Y-64866250I0J-250000D01*
G01*
X207710000Y-65391250D01*
G75*
G02*
X207460000Y-65641250I-250000J0D01*
G01*
G37*
G36*
G01*
X207460000Y-63816250D02*
X206560000Y-63816250D01*
G75*
G02*
X206310000Y-63566250I0J250000D01*
G01*
X206310000Y-63041250D01*
G75*
G02*
X206560000Y-62791250I250000J0D01*
G01*
X207460000Y-62791250D01*
G75*
G02*
X207710000Y-63041250I0J-250000D01*
G01*
X207710000Y-63566250D01*
G75*
G02*
X207460000Y-63816250I-250000J0D01*
G01*
G37*
G36*
G01*
X205265000Y-71336250D02*
X206215000Y-71336250D01*
G75*
G02*
X206465000Y-71586250I0J-250000D01*
G01*
X206465000Y-72086250D01*
G75*
G02*
X206215000Y-72336250I-250000J0D01*
G01*
X205265000Y-72336250D01*
G75*
G02*
X205015000Y-72086250I0J250000D01*
G01*
X205015000Y-71586250D01*
G75*
G02*
X205265000Y-71336250I250000J0D01*
G01*
G37*
G36*
G01*
X205265000Y-73236250D02*
X206215000Y-73236250D01*
G75*
G02*
X206465000Y-73486250I0J-250000D01*
G01*
X206465000Y-73986250D01*
G75*
G02*
X206215000Y-74236250I-250000J0D01*
G01*
X205265000Y-74236250D01*
G75*
G02*
X205015000Y-73986250I0J250000D01*
G01*
X205015000Y-73486250D01*
G75*
G02*
X205265000Y-73236250I250000J0D01*
G01*
G37*
D10*
X194680000Y-93750000D03*
X194680000Y-95020000D03*
X194680000Y-96290000D03*
X194680000Y-97560000D03*
X194680000Y-98830000D03*
X194680000Y-100100000D03*
X194680000Y-101370000D03*
X194680000Y-102640000D03*
X194680000Y-103910000D03*
X194680000Y-105180000D03*
X194680000Y-106450000D03*
X194680000Y-107720000D03*
X194680000Y-108990000D03*
X194680000Y-110260000D03*
D11*
X196445000Y-111510000D03*
X197715000Y-111510000D03*
X198985000Y-111510000D03*
X200255000Y-111510000D03*
X201525000Y-111510000D03*
X202795000Y-111510000D03*
X204065000Y-111510000D03*
X205335000Y-111510000D03*
X206605000Y-111510000D03*
X207875000Y-111510000D03*
X209145000Y-111510000D03*
X210415000Y-111510000D03*
D10*
X212180000Y-110260000D03*
X212180000Y-108990000D03*
X212180000Y-107720000D03*
X212180000Y-106450000D03*
X212180000Y-105180000D03*
X212180000Y-103910000D03*
X212180000Y-102640000D03*
X212180000Y-101370000D03*
X212180000Y-100100000D03*
X212180000Y-98830000D03*
X212180000Y-97560000D03*
X212180000Y-96290000D03*
X212180000Y-95020000D03*
X212180000Y-93750000D03*
D12*
X200530000Y-100070000D03*
X200530000Y-101470000D03*
X200530000Y-102870000D03*
X200530000Y-102870000D03*
X201930000Y-100070000D03*
X201930000Y-100070000D03*
X201930000Y-101470000D03*
X201930000Y-102870000D03*
X203330000Y-100070000D03*
X203330000Y-101470000D03*
X203330000Y-102870000D03*
D13*
X191480000Y-80010000D03*
X195580000Y-80010000D03*
X195580000Y-78410000D03*
X191480000Y-78410000D03*
G36*
G01*
X185665000Y-109810000D02*
X185665000Y-110710000D01*
G75*
G02*
X185415000Y-110960000I-250000J0D01*
G01*
X184890000Y-110960000D01*
G75*
G02*
X184640000Y-110710000I0J250000D01*
G01*
X184640000Y-109810000D01*
G75*
G02*
X184890000Y-109560000I250000J0D01*
G01*
X185415000Y-109560000D01*
G75*
G02*
X185665000Y-109810000I0J-250000D01*
G01*
G37*
G36*
G01*
X183840000Y-109810000D02*
X183840000Y-110710000D01*
G75*
G02*
X183590000Y-110960000I-250000J0D01*
G01*
X183065000Y-110960000D01*
G75*
G02*
X182815000Y-110710000I0J250000D01*
G01*
X182815000Y-109810000D01*
G75*
G02*
X183065000Y-109560000I250000J0D01*
G01*
X183590000Y-109560000D01*
G75*
G02*
X183840000Y-109810000I0J-250000D01*
G01*
G37*
G36*
G01*
X201832500Y-67721250D02*
X201832500Y-67546250D01*
G75*
G02*
X201920000Y-67458750I87500J0D01*
G01*
X202370000Y-67458750D01*
G75*
G02*
X202457500Y-67546250I0J-87500D01*
G01*
X202457500Y-67721250D01*
G75*
G02*
X202370000Y-67808750I-87500J0D01*
G01*
X201920000Y-67808750D01*
G75*
G02*
X201832500Y-67721250I0J87500D01*
G01*
G37*
G36*
G01*
X201832500Y-68221250D02*
X201832500Y-68046250D01*
G75*
G02*
X201920000Y-67958750I87500J0D01*
G01*
X202370000Y-67958750D01*
G75*
G02*
X202457500Y-68046250I0J-87500D01*
G01*
X202457500Y-68221250D01*
G75*
G02*
X202370000Y-68308750I-87500J0D01*
G01*
X201920000Y-68308750D01*
G75*
G02*
X201832500Y-68221250I0J87500D01*
G01*
G37*
G36*
G01*
X201832500Y-68721250D02*
X201832500Y-68546250D01*
G75*
G02*
X201920000Y-68458750I87500J0D01*
G01*
X202370000Y-68458750D01*
G75*
G02*
X202457500Y-68546250I0J-87500D01*
G01*
X202457500Y-68721250D01*
G75*
G02*
X202370000Y-68808750I-87500J0D01*
G01*
X201920000Y-68808750D01*
G75*
G02*
X201832500Y-68721250I0J87500D01*
G01*
G37*
G36*
G01*
X201832500Y-69221250D02*
X201832500Y-69046250D01*
G75*
G02*
X201920000Y-68958750I87500J0D01*
G01*
X202370000Y-68958750D01*
G75*
G02*
X202457500Y-69046250I0J-87500D01*
G01*
X202457500Y-69221250D01*
G75*
G02*
X202370000Y-69308750I-87500J0D01*
G01*
X201920000Y-69308750D01*
G75*
G02*
X201832500Y-69221250I0J87500D01*
G01*
G37*
G36*
G01*
X202632500Y-69521250D02*
X202632500Y-69071250D01*
G75*
G02*
X202720000Y-68983750I87500J0D01*
G01*
X202895000Y-68983750D01*
G75*
G02*
X202982500Y-69071250I0J-87500D01*
G01*
X202982500Y-69521250D01*
G75*
G02*
X202895000Y-69608750I-87500J0D01*
G01*
X202720000Y-69608750D01*
G75*
G02*
X202632500Y-69521250I0J87500D01*
G01*
G37*
G36*
G01*
X203132500Y-69521250D02*
X203132500Y-69071250D01*
G75*
G02*
X203220000Y-68983750I87500J0D01*
G01*
X203395000Y-68983750D01*
G75*
G02*
X203482500Y-69071250I0J-87500D01*
G01*
X203482500Y-69521250D01*
G75*
G02*
X203395000Y-69608750I-87500J0D01*
G01*
X203220000Y-69608750D01*
G75*
G02*
X203132500Y-69521250I0J87500D01*
G01*
G37*
G36*
G01*
X203632500Y-69521250D02*
X203632500Y-69071250D01*
G75*
G02*
X203720000Y-68983750I87500J0D01*
G01*
X203895000Y-68983750D01*
G75*
G02*
X203982500Y-69071250I0J-87500D01*
G01*
X203982500Y-69521250D01*
G75*
G02*
X203895000Y-69608750I-87500J0D01*
G01*
X203720000Y-69608750D01*
G75*
G02*
X203632500Y-69521250I0J87500D01*
G01*
G37*
G36*
G01*
X204157500Y-69221250D02*
X204157500Y-69046250D01*
G75*
G02*
X204245000Y-68958750I87500J0D01*
G01*
X204695000Y-68958750D01*
G75*
G02*
X204782500Y-69046250I0J-87500D01*
G01*
X204782500Y-69221250D01*
G75*
G02*
X204695000Y-69308750I-87500J0D01*
G01*
X204245000Y-69308750D01*
G75*
G02*
X204157500Y-69221250I0J87500D01*
G01*
G37*
G36*
G01*
X204157500Y-68721250D02*
X204157500Y-68546250D01*
G75*
G02*
X204245000Y-68458750I87500J0D01*
G01*
X204695000Y-68458750D01*
G75*
G02*
X204782500Y-68546250I0J-87500D01*
G01*
X204782500Y-68721250D01*
G75*
G02*
X204695000Y-68808750I-87500J0D01*
G01*
X204245000Y-68808750D01*
G75*
G02*
X204157500Y-68721250I0J87500D01*
G01*
G37*
G36*
G01*
X204157500Y-68221250D02*
X204157500Y-68046250D01*
G75*
G02*
X204245000Y-67958750I87500J0D01*
G01*
X204695000Y-67958750D01*
G75*
G02*
X204782500Y-68046250I0J-87500D01*
G01*
X204782500Y-68221250D01*
G75*
G02*
X204695000Y-68308750I-87500J0D01*
G01*
X204245000Y-68308750D01*
G75*
G02*
X204157500Y-68221250I0J87500D01*
G01*
G37*
G36*
G01*
X204157500Y-67721250D02*
X204157500Y-67546250D01*
G75*
G02*
X204245000Y-67458750I87500J0D01*
G01*
X204695000Y-67458750D01*
G75*
G02*
X204782500Y-67546250I0J-87500D01*
G01*
X204782500Y-67721250D01*
G75*
G02*
X204695000Y-67808750I-87500J0D01*
G01*
X204245000Y-67808750D01*
G75*
G02*
X204157500Y-67721250I0J87500D01*
G01*
G37*
G36*
G01*
X203632500Y-67696250D02*
X203632500Y-67246250D01*
G75*
G02*
X203720000Y-67158750I87500J0D01*
G01*
X203895000Y-67158750D01*
G75*
G02*
X203982500Y-67246250I0J-87500D01*
G01*
X203982500Y-67696250D01*
G75*
G02*
X203895000Y-67783750I-87500J0D01*
G01*
X203720000Y-67783750D01*
G75*
G02*
X203632500Y-67696250I0J87500D01*
G01*
G37*
G36*
G01*
X203132500Y-67696250D02*
X203132500Y-67246250D01*
G75*
G02*
X203220000Y-67158750I87500J0D01*
G01*
X203395000Y-67158750D01*
G75*
G02*
X203482500Y-67246250I0J-87500D01*
G01*
X203482500Y-67696250D01*
G75*
G02*
X203395000Y-67783750I-87500J0D01*
G01*
X203220000Y-67783750D01*
G75*
G02*
X203132500Y-67696250I0J87500D01*
G01*
G37*
G36*
G01*
X202632500Y-67696250D02*
X202632500Y-67246250D01*
G75*
G02*
X202720000Y-67158750I87500J0D01*
G01*
X202895000Y-67158750D01*
G75*
G02*
X202982500Y-67246250I0J-87500D01*
G01*
X202982500Y-67696250D01*
G75*
G02*
X202895000Y-67783750I-87500J0D01*
G01*
X202720000Y-67783750D01*
G75*
G02*
X202632500Y-67696250I0J87500D01*
G01*
G37*
G36*
G01*
X200185000Y-71336250D02*
X201135000Y-71336250D01*
G75*
G02*
X201385000Y-71586250I0J-250000D01*
G01*
X201385000Y-72086250D01*
G75*
G02*
X201135000Y-72336250I-250000J0D01*
G01*
X200185000Y-72336250D01*
G75*
G02*
X199935000Y-72086250I0J250000D01*
G01*
X199935000Y-71586250D01*
G75*
G02*
X200185000Y-71336250I250000J0D01*
G01*
G37*
G36*
G01*
X200185000Y-73236250D02*
X201135000Y-73236250D01*
G75*
G02*
X201385000Y-73486250I0J-250000D01*
G01*
X201385000Y-73986250D01*
G75*
G02*
X201135000Y-74236250I-250000J0D01*
G01*
X200185000Y-74236250D01*
G75*
G02*
X199935000Y-73986250I0J250000D01*
G01*
X199935000Y-73486250D01*
G75*
G02*
X200185000Y-73236250I250000J0D01*
G01*
G37*
M02*
