%TF.GenerationSoftware,KiCad,Pcbnew,7.0.9*%
%TF.CreationDate,2023-12-14T14:58:20+01:00*%
%TF.ProjectId,TestPCB_Small,54657374-5043-4425-9f53-6d616c6c2e6b,rev?*%
%TF.SameCoordinates,Original*%
%TF.FileFunction,Copper,L1,Top*%
%TF.FilePolarity,Positive*%
%FSLAX46Y46*%
G04 Gerber Fmt 4.6, Leading zero omitted, Abs format (unit mm)*
G04 Created by KiCad (PCBNEW 7.0.9) date 2023-12-14 14:58:20*
%MOMM*%
%LPD*%
G01*
G04 APERTURE LIST*
%TA.AperFunction,SMDPad,CuDef*%
%ADD10R,2.000000X2.000000*%
%TD*%
%TA.AperFunction,SMDPad,CuDef*%
%ADD11R,0.900000X1.000000*%
%TD*%
%TA.AperFunction,SMDPad,CuDef*%
%ADD12R,1.500000X0.900000*%
%TD*%
%TA.AperFunction,SMDPad,CuDef*%
%ADD13R,0.900000X1.500000*%
%TD*%
%TA.AperFunction,SMDPad,CuDef*%
%ADD14R,0.900000X0.900000*%
%TD*%
%TA.AperFunction,Conductor*%
%ADD15C,0.250000*%
%TD*%
G04 APERTURE END LIST*
D10*
X186690000Y-106680000D03*
D11*
X201930000Y-64770000D03*
X206030000Y-64770000D03*
X206030000Y-63170000D03*
X201930000Y-63170000D03*
%TA.AperFunction,SMDPad,CuDef*%
G36*
G01*
X190975000Y-80830000D02*
X190025000Y-80830000D01*
G75*
G02*
X189775000Y-80580000I0J250000D01*
G01*
X189775000Y-80080000D01*
G75*
G02*
X190025000Y-79830000I250000J0D01*
G01*
X190975000Y-79830000D01*
G75*
G02*
X191225000Y-80080000I0J-250000D01*
G01*
X191225000Y-80580000D01*
G75*
G02*
X190975000Y-80830000I-250000J0D01*
G01*
G37*
%TD.AperFunction*%
%TA.AperFunction,SMDPad,CuDef*%
G36*
G01*
X190975000Y-82730000D02*
X190025000Y-82730000D01*
G75*
G02*
X189775000Y-82480000I0J250000D01*
G01*
X189775000Y-81980000D01*
G75*
G02*
X190025000Y-81730000I250000J0D01*
G01*
X190975000Y-81730000D01*
G75*
G02*
X191225000Y-81980000I0J-250000D01*
G01*
X191225000Y-82480000D01*
G75*
G02*
X190975000Y-82730000I-250000J0D01*
G01*
G37*
%TD.AperFunction*%
D10*
X218440000Y-73660000D03*
X189320000Y-92090000D03*
X218530000Y-84470000D03*
X218530000Y-92090000D03*
%TA.AperFunction,SMDPad,CuDef*%
G36*
G01*
X216055000Y-110040000D02*
X216055000Y-110940000D01*
G75*
G02*
X215805000Y-111190000I-250000J0D01*
G01*
X215280000Y-111190000D01*
G75*
G02*
X215030000Y-110940000I0J250000D01*
G01*
X215030000Y-110040000D01*
G75*
G02*
X215280000Y-109790000I250000J0D01*
G01*
X215805000Y-109790000D01*
G75*
G02*
X216055000Y-110040000I0J-250000D01*
G01*
G37*
%TD.AperFunction*%
%TA.AperFunction,SMDPad,CuDef*%
G36*
G01*
X214230000Y-110040000D02*
X214230000Y-110940000D01*
G75*
G02*
X213980000Y-111190000I-250000J0D01*
G01*
X213455000Y-111190000D01*
G75*
G02*
X213205000Y-110940000I0J250000D01*
G01*
X213205000Y-110040000D01*
G75*
G02*
X213455000Y-109790000I250000J0D01*
G01*
X213980000Y-109790000D01*
G75*
G02*
X214230000Y-110040000I0J-250000D01*
G01*
G37*
%TD.AperFunction*%
%TA.AperFunction,SMDPad,CuDef*%
G36*
G01*
X185665000Y-91640000D02*
X185665000Y-92540000D01*
G75*
G02*
X185415000Y-92790000I-250000J0D01*
G01*
X184890000Y-92790000D01*
G75*
G02*
X184640000Y-92540000I0J250000D01*
G01*
X184640000Y-91640000D01*
G75*
G02*
X184890000Y-91390000I250000J0D01*
G01*
X185415000Y-91390000D01*
G75*
G02*
X185665000Y-91640000I0J-250000D01*
G01*
G37*
%TD.AperFunction*%
%TA.AperFunction,SMDPad,CuDef*%
G36*
G01*
X183840000Y-91640000D02*
X183840000Y-92540000D01*
G75*
G02*
X183590000Y-92790000I-250000J0D01*
G01*
X183065000Y-92790000D01*
G75*
G02*
X182815000Y-92540000I0J250000D01*
G01*
X182815000Y-91640000D01*
G75*
G02*
X183065000Y-91390000I250000J0D01*
G01*
X183590000Y-91390000D01*
G75*
G02*
X183840000Y-91640000I0J-250000D01*
G01*
G37*
%TD.AperFunction*%
X189320000Y-99710000D03*
X196850000Y-63970000D03*
%TA.AperFunction,SMDPad,CuDef*%
G36*
G01*
X217310000Y-107155000D02*
X217310000Y-106205000D01*
G75*
G02*
X217560000Y-105955000I250000J0D01*
G01*
X218060000Y-105955000D01*
G75*
G02*
X218310000Y-106205000I0J-250000D01*
G01*
X218310000Y-107155000D01*
G75*
G02*
X218060000Y-107405000I-250000J0D01*
G01*
X217560000Y-107405000D01*
G75*
G02*
X217310000Y-107155000I0J250000D01*
G01*
G37*
%TD.AperFunction*%
%TA.AperFunction,SMDPad,CuDef*%
G36*
G01*
X219210000Y-107155000D02*
X219210000Y-106205000D01*
G75*
G02*
X219460000Y-105955000I250000J0D01*
G01*
X219960000Y-105955000D01*
G75*
G02*
X220210000Y-106205000I0J-250000D01*
G01*
X220210000Y-107155000D01*
G75*
G02*
X219960000Y-107405000I-250000J0D01*
G01*
X219460000Y-107405000D01*
G75*
G02*
X219210000Y-107155000I0J250000D01*
G01*
G37*
%TD.AperFunction*%
%TA.AperFunction,SMDPad,CuDef*%
G36*
G01*
X183970000Y-77945000D02*
X183970000Y-76995000D01*
G75*
G02*
X184220000Y-76745000I250000J0D01*
G01*
X184720000Y-76745000D01*
G75*
G02*
X184970000Y-76995000I0J-250000D01*
G01*
X184970000Y-77945000D01*
G75*
G02*
X184720000Y-78195000I-250000J0D01*
G01*
X184220000Y-78195000D01*
G75*
G02*
X183970000Y-77945000I0J250000D01*
G01*
G37*
%TD.AperFunction*%
%TA.AperFunction,SMDPad,CuDef*%
G36*
G01*
X185870000Y-77945000D02*
X185870000Y-76995000D01*
G75*
G02*
X186120000Y-76745000I250000J0D01*
G01*
X186620000Y-76745000D01*
G75*
G02*
X186870000Y-76995000I0J-250000D01*
G01*
X186870000Y-77945000D01*
G75*
G02*
X186620000Y-78195000I-250000J0D01*
G01*
X186120000Y-78195000D01*
G75*
G02*
X185870000Y-77945000I0J250000D01*
G01*
G37*
%TD.AperFunction*%
%TA.AperFunction,SMDPad,CuDef*%
G36*
G01*
X189680000Y-87785000D02*
X188780000Y-87785000D01*
G75*
G02*
X188530000Y-87535000I0J250000D01*
G01*
X188530000Y-87010000D01*
G75*
G02*
X188780000Y-86760000I250000J0D01*
G01*
X189680000Y-86760000D01*
G75*
G02*
X189930000Y-87010000I0J-250000D01*
G01*
X189930000Y-87535000D01*
G75*
G02*
X189680000Y-87785000I-250000J0D01*
G01*
G37*
%TD.AperFunction*%
%TA.AperFunction,SMDPad,CuDef*%
G36*
G01*
X189680000Y-85960000D02*
X188780000Y-85960000D01*
G75*
G02*
X188530000Y-85710000I0J250000D01*
G01*
X188530000Y-85185000D01*
G75*
G02*
X188780000Y-84935000I250000J0D01*
G01*
X189680000Y-84935000D01*
G75*
G02*
X189930000Y-85185000I0J-250000D01*
G01*
X189930000Y-85710000D01*
G75*
G02*
X189680000Y-85960000I-250000J0D01*
G01*
G37*
%TD.AperFunction*%
X203290000Y-106060000D03*
X218530000Y-79390000D03*
X209640000Y-106060000D03*
D12*
X194680000Y-83200000D03*
X194680000Y-84470000D03*
X194680000Y-85740000D03*
X194680000Y-87010000D03*
X194680000Y-88280000D03*
X194680000Y-89550000D03*
X194680000Y-90820000D03*
X194680000Y-92090000D03*
X194680000Y-93360000D03*
X194680000Y-94630000D03*
X194680000Y-95900000D03*
X194680000Y-97170000D03*
X194680000Y-98440000D03*
X194680000Y-99710000D03*
D13*
X196445000Y-100960000D03*
X197715000Y-100960000D03*
X198985000Y-100960000D03*
X200255000Y-100960000D03*
X201525000Y-100960000D03*
X202795000Y-100960000D03*
X204065000Y-100960000D03*
X205335000Y-100960000D03*
X206605000Y-100960000D03*
X207875000Y-100960000D03*
X209145000Y-100960000D03*
X210415000Y-100960000D03*
D12*
X212180000Y-99710000D03*
X212180000Y-98440000D03*
X212180000Y-97170000D03*
X212180000Y-95900000D03*
X212180000Y-94630000D03*
X212180000Y-93360000D03*
X212180000Y-92090000D03*
X212180000Y-90820000D03*
X212180000Y-89550000D03*
X212180000Y-88280000D03*
X212180000Y-87010000D03*
X212180000Y-85740000D03*
X212180000Y-84470000D03*
X212180000Y-83200000D03*
D14*
X200530000Y-89520000D03*
X200530000Y-90920000D03*
X200530000Y-92320000D03*
X200530000Y-92320000D03*
X201930000Y-89520000D03*
X201930000Y-89520000D03*
X201930000Y-90920000D03*
X201930000Y-92320000D03*
X203330000Y-89520000D03*
X203330000Y-90920000D03*
X203330000Y-92320000D03*
D10*
X212090000Y-63970000D03*
X184150000Y-87630000D03*
X185420000Y-82550000D03*
X218530000Y-99710000D03*
%TA.AperFunction,SMDPad,CuDef*%
G36*
G01*
X185665000Y-99260000D02*
X185665000Y-100160000D01*
G75*
G02*
X185415000Y-100410000I-250000J0D01*
G01*
X184890000Y-100410000D01*
G75*
G02*
X184640000Y-100160000I0J250000D01*
G01*
X184640000Y-99260000D01*
G75*
G02*
X184890000Y-99010000I250000J0D01*
G01*
X185415000Y-99010000D01*
G75*
G02*
X185665000Y-99260000I0J-250000D01*
G01*
G37*
%TD.AperFunction*%
%TA.AperFunction,SMDPad,CuDef*%
G36*
G01*
X183840000Y-99260000D02*
X183840000Y-100160000D01*
G75*
G02*
X183590000Y-100410000I-250000J0D01*
G01*
X183065000Y-100410000D01*
G75*
G02*
X182815000Y-100160000I0J250000D01*
G01*
X182815000Y-99260000D01*
G75*
G02*
X183065000Y-99010000I250000J0D01*
G01*
X183590000Y-99010000D01*
G75*
G02*
X183840000Y-99260000I0J-250000D01*
G01*
G37*
%TD.AperFunction*%
X196940000Y-106060000D03*
D15*
X190500000Y-78740000D02*
X190500000Y-80330000D01*
X189230000Y-85447500D02*
X189230000Y-83500000D01*
X189230000Y-83500000D02*
X190500000Y-82230000D01*
X188317500Y-85447500D02*
X189230000Y-85447500D01*
X185420000Y-82550000D02*
X188317500Y-85447500D01*
X192740000Y-84470000D02*
X194680000Y-84470000D01*
X190500000Y-82230000D02*
X192740000Y-84470000D01*
X193355000Y-80330000D02*
X190500000Y-80330000D01*
X194305000Y-81280000D02*
X193355000Y-80330000D01*
X194305000Y-82825000D02*
X194305000Y-81280000D01*
X194680000Y-83200000D02*
X194305000Y-82825000D01*
X181610000Y-78740000D02*
X181610000Y-85090000D01*
X181610000Y-85090000D02*
X184150000Y-87630000D01*
X184470000Y-77470000D02*
X182880000Y-77470000D01*
X182880000Y-77470000D02*
X181610000Y-78740000D01*
X189230000Y-77470000D02*
X190500000Y-78740000D01*
X186370000Y-77470000D02*
X189230000Y-77470000D01*
X189230000Y-87272500D02*
X184507500Y-87272500D01*
X184507500Y-87272500D02*
X184150000Y-87630000D01*
X192390000Y-85740000D02*
X194680000Y-85740000D01*
X190857500Y-87272500D02*
X192390000Y-85740000D01*
X189230000Y-87272500D02*
X190857500Y-87272500D01*
X186690000Y-106680000D02*
X189230000Y-106680000D01*
X189230000Y-106680000D02*
X193040000Y-110490000D01*
X193040000Y-110490000D02*
X213717500Y-110490000D01*
X186690000Y-105410000D02*
X186690000Y-106680000D01*
X183327500Y-102047500D02*
X186690000Y-105410000D01*
X200530000Y-88050000D02*
X200530000Y-89520000D01*
X195680000Y-83200000D02*
X200530000Y-88050000D01*
X194680000Y-83200000D02*
X195680000Y-83200000D01*
X189320000Y-99710000D02*
X194680000Y-99710000D01*
X185152500Y-99710000D02*
X189320000Y-99710000D01*
X183327500Y-99710000D02*
X183327500Y-102047500D01*
X183327500Y-92090000D02*
X183327500Y-99710000D01*
X217260000Y-84470000D02*
X218530000Y-84470000D01*
X214720000Y-87010000D02*
X217260000Y-84470000D01*
X212180000Y-87010000D02*
X214720000Y-87010000D01*
X212180000Y-88280000D02*
X214720000Y-88280000D01*
X214720000Y-88280000D02*
X218530000Y-92090000D01*
X215542500Y-110490000D02*
X215542500Y-108947500D01*
X215542500Y-108947500D02*
X217810000Y-106680000D01*
X217810000Y-100430000D02*
X218530000Y-99710000D01*
X217810000Y-106680000D02*
X217810000Y-100430000D01*
X212180000Y-99710000D02*
X218530000Y-99710000D01*
X211290000Y-64770000D02*
X212090000Y-63970000D01*
X206030000Y-64770000D02*
X211290000Y-64770000D01*
X201930000Y-64770000D02*
X197650000Y-64770000D01*
X197650000Y-64770000D02*
X196850000Y-63970000D01*
X204065000Y-105285000D02*
X204065000Y-100960000D01*
X203290000Y-106060000D02*
X204065000Y-105285000D01*
X198210000Y-103520000D02*
X199480000Y-103520000D01*
X196940000Y-106060000D02*
X196940000Y-104790000D01*
X199480000Y-103520000D02*
X200255000Y-102745000D01*
X196940000Y-104790000D02*
X198210000Y-103520000D01*
X200255000Y-102745000D02*
X200255000Y-100960000D01*
X209640000Y-104790000D02*
X207875000Y-103025000D01*
X207875000Y-103025000D02*
X207875000Y-100960000D01*
X209640000Y-106060000D02*
X209640000Y-104790000D01*
X189320000Y-92090000D02*
X191860000Y-92090000D01*
X191860000Y-94630000D02*
X193130000Y-95900000D01*
X191860000Y-92090000D02*
X191860000Y-94630000D01*
X185152500Y-92090000D02*
X189320000Y-92090000D01*
X193130000Y-95900000D02*
X194680000Y-95900000D01*
X203330000Y-89520000D02*
X203330000Y-90920000D01*
X218440000Y-73660000D02*
X218440000Y-79300000D01*
X200530000Y-90920000D02*
X200530000Y-92320000D01*
X220980000Y-106680000D02*
X219710000Y-106680000D01*
X200530000Y-89520000D02*
X203330000Y-89520000D01*
X203330000Y-90920000D02*
X200530000Y-90920000D01*
X218530000Y-79390000D02*
X222900000Y-79390000D01*
X223520000Y-80010000D02*
X223520000Y-104140000D01*
X222900000Y-79390000D02*
X223520000Y-80010000D01*
X200530000Y-92320000D02*
X203330000Y-92320000D01*
X223520000Y-104140000D02*
X220980000Y-106680000D01*
X209650000Y-83200000D02*
X212180000Y-83200000D01*
X212180000Y-83200000D02*
X214720000Y-83200000D01*
X203330000Y-89520000D02*
X209650000Y-83200000D01*
X218440000Y-79300000D02*
X218530000Y-79390000D01*
X214720000Y-83200000D02*
X218530000Y-79390000D01*
M02*
