%TF.GenerationSoftware,KiCad,Pcbnew,7.0.9*%
%TF.CreationDate,2023-12-13T15:44:44+01:00*%
%TF.ProjectId,TestPCB_Big,54657374-5043-4425-9f42-69672e6b6963,rev?*%
%TF.SameCoordinates,Original*%
%TF.FileFunction,Paste,Top*%
%TF.FilePolarity,Positive*%
%FSLAX46Y46*%
G04 Gerber Fmt 4.6, Leading zero omitted, Abs format (unit mm)*
G04 Created by KiCad (PCBNEW 7.0.9) date 2023-12-13 15:44:44*
%MOMM*%
%LPD*%
G01*
G04 APERTURE LIST*
%ADD10R,1.500000X0.900000*%
%ADD11R,1.000000X1.250000*%
%ADD12R,2.510000X1.000000*%
%ADD13R,1.200000X0.700000*%
%ADD14R,1.200000X0.760000*%
%ADD15R,1.200000X0.800000*%
%ADD16R,1.350000X1.800000*%
%ADD17R,1.500000X1.800000*%
%ADD18R,1.200000X2.500000*%
%ADD19R,0.650000X1.550000*%
G04 APERTURE END LIST*
G36*
G01*
X89655000Y-105650000D02*
X90605000Y-105650000D01*
G75*
G02*
X90855000Y-105900000I0J-250000D01*
G01*
X90855000Y-106400000D01*
G75*
G02*
X90605000Y-106650000I-250000J0D01*
G01*
X89655000Y-106650000D01*
G75*
G02*
X89405000Y-106400000I0J250000D01*
G01*
X89405000Y-105900000D01*
G75*
G02*
X89655000Y-105650000I250000J0D01*
G01*
G37*
G36*
G01*
X89655000Y-107550000D02*
X90605000Y-107550000D01*
G75*
G02*
X90855000Y-107800000I0J-250000D01*
G01*
X90855000Y-108300000D01*
G75*
G02*
X90605000Y-108550000I-250000J0D01*
G01*
X89655000Y-108550000D01*
G75*
G02*
X89405000Y-108300000I0J250000D01*
G01*
X89405000Y-107800000D01*
G75*
G02*
X89655000Y-107550000I250000J0D01*
G01*
G37*
G36*
G01*
X137610000Y-89055000D02*
X136710000Y-89055000D01*
G75*
G02*
X136460000Y-88805000I0J250000D01*
G01*
X136460000Y-88280000D01*
G75*
G02*
X136710000Y-88030000I250000J0D01*
G01*
X137610000Y-88030000D01*
G75*
G02*
X137860000Y-88280000I0J-250000D01*
G01*
X137860000Y-88805000D01*
G75*
G02*
X137610000Y-89055000I-250000J0D01*
G01*
G37*
G36*
G01*
X137610000Y-87230000D02*
X136710000Y-87230000D01*
G75*
G02*
X136460000Y-86980000I0J250000D01*
G01*
X136460000Y-86455000D01*
G75*
G02*
X136710000Y-86205000I250000J0D01*
G01*
X137610000Y-86205000D01*
G75*
G02*
X137860000Y-86455000I0J-250000D01*
G01*
X137860000Y-86980000D01*
G75*
G02*
X137610000Y-87230000I-250000J0D01*
G01*
G37*
D10*
X90715000Y-67690000D03*
X90715000Y-64390000D03*
X85815000Y-64390000D03*
X85815000Y-67690000D03*
G36*
G01*
X104895000Y-114120000D02*
X105845000Y-114120000D01*
G75*
G02*
X106095000Y-114370000I0J-250000D01*
G01*
X106095000Y-114870000D01*
G75*
G02*
X105845000Y-115120000I-250000J0D01*
G01*
X104895000Y-115120000D01*
G75*
G02*
X104645000Y-114870000I0J250000D01*
G01*
X104645000Y-114370000D01*
G75*
G02*
X104895000Y-114120000I250000J0D01*
G01*
G37*
G36*
G01*
X104895000Y-116020000D02*
X105845000Y-116020000D01*
G75*
G02*
X106095000Y-116270000I0J-250000D01*
G01*
X106095000Y-116770000D01*
G75*
G02*
X105845000Y-117020000I-250000J0D01*
G01*
X104895000Y-117020000D01*
G75*
G02*
X104645000Y-116770000I0J250000D01*
G01*
X104645000Y-116270000D01*
G75*
G02*
X104895000Y-116020000I250000J0D01*
G01*
G37*
G36*
G01*
X125550000Y-98265000D02*
X125550000Y-97315000D01*
G75*
G02*
X125800000Y-97065000I250000J0D01*
G01*
X126300000Y-97065000D01*
G75*
G02*
X126550000Y-97315000I0J-250000D01*
G01*
X126550000Y-98265000D01*
G75*
G02*
X126300000Y-98515000I-250000J0D01*
G01*
X125800000Y-98515000D01*
G75*
G02*
X125550000Y-98265000I0J250000D01*
G01*
G37*
G36*
G01*
X127450000Y-98265000D02*
X127450000Y-97315000D01*
G75*
G02*
X127700000Y-97065000I250000J0D01*
G01*
X128200000Y-97065000D01*
G75*
G02*
X128450000Y-97315000I0J-250000D01*
G01*
X128450000Y-98265000D01*
G75*
G02*
X128200000Y-98515000I-250000J0D01*
G01*
X127700000Y-98515000D01*
G75*
G02*
X127450000Y-98265000I0J250000D01*
G01*
G37*
G36*
G01*
X70605000Y-105650000D02*
X71555000Y-105650000D01*
G75*
G02*
X71805000Y-105900000I0J-250000D01*
G01*
X71805000Y-106400000D01*
G75*
G02*
X71555000Y-106650000I-250000J0D01*
G01*
X70605000Y-106650000D01*
G75*
G02*
X70355000Y-106400000I0J250000D01*
G01*
X70355000Y-105900000D01*
G75*
G02*
X70605000Y-105650000I250000J0D01*
G01*
G37*
G36*
G01*
X70605000Y-107550000D02*
X71555000Y-107550000D01*
G75*
G02*
X71805000Y-107800000I0J-250000D01*
G01*
X71805000Y-108300000D01*
G75*
G02*
X71555000Y-108550000I-250000J0D01*
G01*
X70605000Y-108550000D01*
G75*
G02*
X70355000Y-108300000I0J250000D01*
G01*
X70355000Y-107800000D01*
G75*
G02*
X70605000Y-107550000I250000J0D01*
G01*
G37*
G36*
G01*
X82665000Y-111723750D02*
X82665000Y-112636250D01*
G75*
G02*
X82421250Y-112880000I-243750J0D01*
G01*
X81933750Y-112880000D01*
G75*
G02*
X81690000Y-112636250I0J243750D01*
G01*
X81690000Y-111723750D01*
G75*
G02*
X81933750Y-111480000I243750J0D01*
G01*
X82421250Y-111480000D01*
G75*
G02*
X82665000Y-111723750I0J-243750D01*
G01*
G37*
G36*
G01*
X80790000Y-111723750D02*
X80790000Y-112636250D01*
G75*
G02*
X80546250Y-112880000I-243750J0D01*
G01*
X80058750Y-112880000D01*
G75*
G02*
X79815000Y-112636250I0J243750D01*
G01*
X79815000Y-111723750D01*
G75*
G02*
X80058750Y-111480000I243750J0D01*
G01*
X80546250Y-111480000D01*
G75*
G02*
X80790000Y-111723750I0J-243750D01*
G01*
G37*
X113575000Y-67690000D03*
X113575000Y-64390000D03*
X108675000Y-64390000D03*
X108675000Y-67690000D03*
G36*
G01*
X99815000Y-114120000D02*
X100765000Y-114120000D01*
G75*
G02*
X101015000Y-114370000I0J-250000D01*
G01*
X101015000Y-114870000D01*
G75*
G02*
X100765000Y-115120000I-250000J0D01*
G01*
X99815000Y-115120000D01*
G75*
G02*
X99565000Y-114870000I0J250000D01*
G01*
X99565000Y-114370000D01*
G75*
G02*
X99815000Y-114120000I250000J0D01*
G01*
G37*
G36*
G01*
X99815000Y-116020000D02*
X100765000Y-116020000D01*
G75*
G02*
X101015000Y-116270000I0J-250000D01*
G01*
X101015000Y-116770000D01*
G75*
G02*
X100765000Y-117020000I-250000J0D01*
G01*
X99815000Y-117020000D01*
G75*
G02*
X99565000Y-116770000I0J250000D01*
G01*
X99565000Y-116270000D01*
G75*
G02*
X99815000Y-116020000I250000J0D01*
G01*
G37*
G36*
G01*
X88445000Y-60485000D02*
X88445000Y-61435000D01*
G75*
G02*
X88195000Y-61685000I-250000J0D01*
G01*
X87695000Y-61685000D01*
G75*
G02*
X87445000Y-61435000I0J250000D01*
G01*
X87445000Y-60485000D01*
G75*
G02*
X87695000Y-60235000I250000J0D01*
G01*
X88195000Y-60235000D01*
G75*
G02*
X88445000Y-60485000I0J-250000D01*
G01*
G37*
G36*
G01*
X86545000Y-60485000D02*
X86545000Y-61435000D01*
G75*
G02*
X86295000Y-61685000I-250000J0D01*
G01*
X85795000Y-61685000D01*
G75*
G02*
X85545000Y-61435000I0J250000D01*
G01*
X85545000Y-60485000D01*
G75*
G02*
X85795000Y-60235000I250000J0D01*
G01*
X86295000Y-60235000D01*
G75*
G02*
X86545000Y-60485000I0J-250000D01*
G01*
G37*
G36*
G01*
X132530000Y-111915000D02*
X131630000Y-111915000D01*
G75*
G02*
X131380000Y-111665000I0J250000D01*
G01*
X131380000Y-111140000D01*
G75*
G02*
X131630000Y-110890000I250000J0D01*
G01*
X132530000Y-110890000D01*
G75*
G02*
X132780000Y-111140000I0J-250000D01*
G01*
X132780000Y-111665000D01*
G75*
G02*
X132530000Y-111915000I-250000J0D01*
G01*
G37*
G36*
G01*
X132530000Y-110090000D02*
X131630000Y-110090000D01*
G75*
G02*
X131380000Y-109840000I0J250000D01*
G01*
X131380000Y-109315000D01*
G75*
G02*
X131630000Y-109065000I250000J0D01*
G01*
X132530000Y-109065000D01*
G75*
G02*
X132780000Y-109315000I0J-250000D01*
G01*
X132780000Y-109840000D01*
G75*
G02*
X132530000Y-110090000I-250000J0D01*
G01*
G37*
D11*
X79205000Y-78740000D03*
X77005000Y-78740000D03*
D12*
X99695000Y-76200000D03*
X103005000Y-78740000D03*
X99695000Y-81280000D03*
X103005000Y-83820000D03*
G36*
G01*
X80420000Y-109795000D02*
X79520000Y-109795000D01*
G75*
G02*
X79270000Y-109545000I0J250000D01*
G01*
X79270000Y-109020000D01*
G75*
G02*
X79520000Y-108770000I250000J0D01*
G01*
X80420000Y-108770000D01*
G75*
G02*
X80670000Y-109020000I0J-250000D01*
G01*
X80670000Y-109545000D01*
G75*
G02*
X80420000Y-109795000I-250000J0D01*
G01*
G37*
G36*
G01*
X80420000Y-107970000D02*
X79520000Y-107970000D01*
G75*
G02*
X79270000Y-107720000I0J250000D01*
G01*
X79270000Y-107195000D01*
G75*
G02*
X79520000Y-106945000I250000J0D01*
G01*
X80420000Y-106945000D01*
G75*
G02*
X80670000Y-107195000I0J-250000D01*
G01*
X80670000Y-107720000D01*
G75*
G02*
X80420000Y-107970000I-250000J0D01*
G01*
G37*
D13*
X66515000Y-107870000D03*
D14*
X66515000Y-109890000D03*
D15*
X66515000Y-111120000D03*
D13*
X66515000Y-108870000D03*
D14*
X66515000Y-106850000D03*
D15*
X66515000Y-105620000D03*
D16*
X66440000Y-103245000D03*
X66440000Y-113495000D03*
D17*
X62860000Y-103245000D03*
X62860000Y-113495000D03*
G36*
G01*
X70035000Y-63345000D02*
X70935000Y-63345000D01*
G75*
G02*
X71185000Y-63595000I0J-250000D01*
G01*
X71185000Y-64120000D01*
G75*
G02*
X70935000Y-64370000I-250000J0D01*
G01*
X70035000Y-64370000D01*
G75*
G02*
X69785000Y-64120000I0J250000D01*
G01*
X69785000Y-63595000D01*
G75*
G02*
X70035000Y-63345000I250000J0D01*
G01*
G37*
G36*
G01*
X70035000Y-65170000D02*
X70935000Y-65170000D01*
G75*
G02*
X71185000Y-65420000I0J-250000D01*
G01*
X71185000Y-65945000D01*
G75*
G02*
X70935000Y-66195000I-250000J0D01*
G01*
X70035000Y-66195000D01*
G75*
G02*
X69785000Y-65945000I0J250000D01*
G01*
X69785000Y-65420000D01*
G75*
G02*
X70035000Y-65170000I250000J0D01*
G01*
G37*
G36*
G01*
X86717500Y-108220000D02*
X86717500Y-108520000D01*
G75*
G02*
X86567500Y-108670000I-150000J0D01*
G01*
X85542500Y-108670000D01*
G75*
G02*
X85392500Y-108520000I0J150000D01*
G01*
X85392500Y-108220000D01*
G75*
G02*
X85542500Y-108070000I150000J0D01*
G01*
X86567500Y-108070000D01*
G75*
G02*
X86717500Y-108220000I0J-150000D01*
G01*
G37*
G36*
G01*
X86717500Y-107270000D02*
X86717500Y-107570000D01*
G75*
G02*
X86567500Y-107720000I-150000J0D01*
G01*
X85542500Y-107720000D01*
G75*
G02*
X85392500Y-107570000I0J150000D01*
G01*
X85392500Y-107270000D01*
G75*
G02*
X85542500Y-107120000I150000J0D01*
G01*
X86567500Y-107120000D01*
G75*
G02*
X86717500Y-107270000I0J-150000D01*
G01*
G37*
G36*
G01*
X86717500Y-106320000D02*
X86717500Y-106620000D01*
G75*
G02*
X86567500Y-106770000I-150000J0D01*
G01*
X85542500Y-106770000D01*
G75*
G02*
X85392500Y-106620000I0J150000D01*
G01*
X85392500Y-106320000D01*
G75*
G02*
X85542500Y-106170000I150000J0D01*
G01*
X86567500Y-106170000D01*
G75*
G02*
X86717500Y-106320000I0J-150000D01*
G01*
G37*
G36*
G01*
X84442500Y-106320000D02*
X84442500Y-106620000D01*
G75*
G02*
X84292500Y-106770000I-150000J0D01*
G01*
X83267500Y-106770000D01*
G75*
G02*
X83117500Y-106620000I0J150000D01*
G01*
X83117500Y-106320000D01*
G75*
G02*
X83267500Y-106170000I150000J0D01*
G01*
X84292500Y-106170000D01*
G75*
G02*
X84442500Y-106320000I0J-150000D01*
G01*
G37*
G36*
G01*
X84442500Y-108220000D02*
X84442500Y-108520000D01*
G75*
G02*
X84292500Y-108670000I-150000J0D01*
G01*
X83267500Y-108670000D01*
G75*
G02*
X83117500Y-108520000I0J150000D01*
G01*
X83117500Y-108220000D01*
G75*
G02*
X83267500Y-108070000I150000J0D01*
G01*
X84292500Y-108070000D01*
G75*
G02*
X84442500Y-108220000I0J-150000D01*
G01*
G37*
G36*
G01*
X134800000Y-97315000D02*
X134800000Y-98265000D01*
G75*
G02*
X134550000Y-98515000I-250000J0D01*
G01*
X134050000Y-98515000D01*
G75*
G02*
X133800000Y-98265000I0J250000D01*
G01*
X133800000Y-97315000D01*
G75*
G02*
X134050000Y-97065000I250000J0D01*
G01*
X134550000Y-97065000D01*
G75*
G02*
X134800000Y-97315000I0J-250000D01*
G01*
G37*
G36*
G01*
X132900000Y-97315000D02*
X132900000Y-98265000D01*
G75*
G02*
X132650000Y-98515000I-250000J0D01*
G01*
X132150000Y-98515000D01*
G75*
G02*
X131900000Y-98265000I0J250000D01*
G01*
X131900000Y-97315000D01*
G75*
G02*
X132150000Y-97065000I250000J0D01*
G01*
X132650000Y-97065000D01*
G75*
G02*
X132900000Y-97315000I0J-250000D01*
G01*
G37*
G36*
G01*
X99875000Y-60485000D02*
X99875000Y-61435000D01*
G75*
G02*
X99625000Y-61685000I-250000J0D01*
G01*
X99125000Y-61685000D01*
G75*
G02*
X98875000Y-61435000I0J250000D01*
G01*
X98875000Y-60485000D01*
G75*
G02*
X99125000Y-60235000I250000J0D01*
G01*
X99625000Y-60235000D01*
G75*
G02*
X99875000Y-60485000I0J-250000D01*
G01*
G37*
G36*
G01*
X97975000Y-60485000D02*
X97975000Y-61435000D01*
G75*
G02*
X97725000Y-61685000I-250000J0D01*
G01*
X97225000Y-61685000D01*
G75*
G02*
X96975000Y-61435000I0J250000D01*
G01*
X96975000Y-60485000D01*
G75*
G02*
X97225000Y-60235000I250000J0D01*
G01*
X97725000Y-60235000D01*
G75*
G02*
X97975000Y-60485000I0J-250000D01*
G01*
G37*
G36*
G01*
X93465000Y-105230000D02*
X94415000Y-105230000D01*
G75*
G02*
X94665000Y-105480000I0J-250000D01*
G01*
X94665000Y-105980000D01*
G75*
G02*
X94415000Y-106230000I-250000J0D01*
G01*
X93465000Y-106230000D01*
G75*
G02*
X93215000Y-105980000I0J250000D01*
G01*
X93215000Y-105480000D01*
G75*
G02*
X93465000Y-105230000I250000J0D01*
G01*
G37*
G36*
G01*
X93465000Y-107130000D02*
X94415000Y-107130000D01*
G75*
G02*
X94665000Y-107380000I0J-250000D01*
G01*
X94665000Y-107880000D01*
G75*
G02*
X94415000Y-108130000I-250000J0D01*
G01*
X93465000Y-108130000D01*
G75*
G02*
X93215000Y-107880000I0J250000D01*
G01*
X93215000Y-107380000D01*
G75*
G02*
X93465000Y-107130000I250000J0D01*
G01*
G37*
D18*
X99100000Y-99480000D03*
X101600000Y-99480000D03*
X104100000Y-99480000D03*
X104100000Y-93980000D03*
X101600000Y-93980000D03*
X99100000Y-93980000D03*
G36*
G01*
X127450000Y-89055000D02*
X126550000Y-89055000D01*
G75*
G02*
X126300000Y-88805000I0J250000D01*
G01*
X126300000Y-88280000D01*
G75*
G02*
X126550000Y-88030000I250000J0D01*
G01*
X127450000Y-88030000D01*
G75*
G02*
X127700000Y-88280000I0J-250000D01*
G01*
X127700000Y-88805000D01*
G75*
G02*
X127450000Y-89055000I-250000J0D01*
G01*
G37*
G36*
G01*
X127450000Y-87230000D02*
X126550000Y-87230000D01*
G75*
G02*
X126300000Y-86980000I0J250000D01*
G01*
X126300000Y-86455000D01*
G75*
G02*
X126550000Y-86205000I250000J0D01*
G01*
X127450000Y-86205000D01*
G75*
G02*
X127700000Y-86455000I0J-250000D01*
G01*
X127700000Y-86980000D01*
G75*
G02*
X127450000Y-87230000I-250000J0D01*
G01*
G37*
G36*
G01*
X88420000Y-78290000D02*
X88420000Y-79190000D01*
G75*
G02*
X88170000Y-79440000I-250000J0D01*
G01*
X87645000Y-79440000D01*
G75*
G02*
X87395000Y-79190000I0J250000D01*
G01*
X87395000Y-78290000D01*
G75*
G02*
X87645000Y-78040000I250000J0D01*
G01*
X88170000Y-78040000D01*
G75*
G02*
X88420000Y-78290000I0J-250000D01*
G01*
G37*
G36*
G01*
X86595000Y-78290000D02*
X86595000Y-79190000D01*
G75*
G02*
X86345000Y-79440000I-250000J0D01*
G01*
X85820000Y-79440000D01*
G75*
G02*
X85570000Y-79190000I0J250000D01*
G01*
X85570000Y-78290000D01*
G75*
G02*
X85820000Y-78040000I250000J0D01*
G01*
X86345000Y-78040000D01*
G75*
G02*
X86595000Y-78290000I0J-250000D01*
G01*
G37*
G36*
G01*
X127450000Y-114455000D02*
X126550000Y-114455000D01*
G75*
G02*
X126300000Y-114205000I0J250000D01*
G01*
X126300000Y-113680000D01*
G75*
G02*
X126550000Y-113430000I250000J0D01*
G01*
X127450000Y-113430000D01*
G75*
G02*
X127700000Y-113680000I0J-250000D01*
G01*
X127700000Y-114205000D01*
G75*
G02*
X127450000Y-114455000I-250000J0D01*
G01*
G37*
G36*
G01*
X127450000Y-112630000D02*
X126550000Y-112630000D01*
G75*
G02*
X126300000Y-112380000I0J250000D01*
G01*
X126300000Y-111855000D01*
G75*
G02*
X126550000Y-111605000I250000J0D01*
G01*
X127450000Y-111605000D01*
G75*
G02*
X127700000Y-111855000I0J-250000D01*
G01*
X127700000Y-112380000D01*
G75*
G02*
X127450000Y-112630000I-250000J0D01*
G01*
G37*
G36*
G01*
X97220000Y-108420000D02*
X97220000Y-108120000D01*
G75*
G02*
X97370000Y-107970000I150000J0D01*
G01*
X98395000Y-107970000D01*
G75*
G02*
X98545000Y-108120000I0J-150000D01*
G01*
X98545000Y-108420000D01*
G75*
G02*
X98395000Y-108570000I-150000J0D01*
G01*
X97370000Y-108570000D01*
G75*
G02*
X97220000Y-108420000I0J150000D01*
G01*
G37*
G36*
G01*
X97220000Y-109370000D02*
X97220000Y-109070000D01*
G75*
G02*
X97370000Y-108920000I150000J0D01*
G01*
X98395000Y-108920000D01*
G75*
G02*
X98545000Y-109070000I0J-150000D01*
G01*
X98545000Y-109370000D01*
G75*
G02*
X98395000Y-109520000I-150000J0D01*
G01*
X97370000Y-109520000D01*
G75*
G02*
X97220000Y-109370000I0J150000D01*
G01*
G37*
G36*
G01*
X97220000Y-110320000D02*
X97220000Y-110020000D01*
G75*
G02*
X97370000Y-109870000I150000J0D01*
G01*
X98395000Y-109870000D01*
G75*
G02*
X98545000Y-110020000I0J-150000D01*
G01*
X98545000Y-110320000D01*
G75*
G02*
X98395000Y-110470000I-150000J0D01*
G01*
X97370000Y-110470000D01*
G75*
G02*
X97220000Y-110320000I0J150000D01*
G01*
G37*
G36*
G01*
X99495000Y-110320000D02*
X99495000Y-110020000D01*
G75*
G02*
X99645000Y-109870000I150000J0D01*
G01*
X100670000Y-109870000D01*
G75*
G02*
X100820000Y-110020000I0J-150000D01*
G01*
X100820000Y-110320000D01*
G75*
G02*
X100670000Y-110470000I-150000J0D01*
G01*
X99645000Y-110470000D01*
G75*
G02*
X99495000Y-110320000I0J150000D01*
G01*
G37*
G36*
G01*
X99495000Y-108420000D02*
X99495000Y-108120000D01*
G75*
G02*
X99645000Y-107970000I150000J0D01*
G01*
X100670000Y-107970000D01*
G75*
G02*
X100820000Y-108120000I0J-150000D01*
G01*
X100820000Y-108420000D01*
G75*
G02*
X100670000Y-108570000I-150000J0D01*
G01*
X99645000Y-108570000D01*
G75*
G02*
X99495000Y-108420000I0J150000D01*
G01*
G37*
D10*
X125095000Y-67690000D03*
X125095000Y-64390000D03*
X120195000Y-64390000D03*
X120195000Y-67690000D03*
X136435000Y-67690000D03*
X136435000Y-64390000D03*
X131535000Y-64390000D03*
X131535000Y-67690000D03*
D19*
X126460000Y-105840000D03*
X128380000Y-105840000D03*
X127420000Y-104140000D03*
G36*
G01*
X111305000Y-60485000D02*
X111305000Y-61435000D01*
G75*
G02*
X111055000Y-61685000I-250000J0D01*
G01*
X110555000Y-61685000D01*
G75*
G02*
X110305000Y-61435000I0J250000D01*
G01*
X110305000Y-60485000D01*
G75*
G02*
X110555000Y-60235000I250000J0D01*
G01*
X111055000Y-60235000D01*
G75*
G02*
X111305000Y-60485000I0J-250000D01*
G01*
G37*
G36*
G01*
X109405000Y-60485000D02*
X109405000Y-61435000D01*
G75*
G02*
X109155000Y-61685000I-250000J0D01*
G01*
X108655000Y-61685000D01*
G75*
G02*
X108405000Y-61435000I0J250000D01*
G01*
X108405000Y-60485000D01*
G75*
G02*
X108655000Y-60235000I250000J0D01*
G01*
X109155000Y-60235000D01*
G75*
G02*
X109405000Y-60485000I0J-250000D01*
G01*
G37*
D10*
X102145000Y-67690000D03*
X102145000Y-64390000D03*
X97245000Y-64390000D03*
X97245000Y-67690000D03*
G36*
G01*
X122735000Y-60485000D02*
X122735000Y-61435000D01*
G75*
G02*
X122485000Y-61685000I-250000J0D01*
G01*
X121985000Y-61685000D01*
G75*
G02*
X121735000Y-61435000I0J250000D01*
G01*
X121735000Y-60485000D01*
G75*
G02*
X121985000Y-60235000I250000J0D01*
G01*
X122485000Y-60235000D01*
G75*
G02*
X122735000Y-60485000I0J-250000D01*
G01*
G37*
G36*
G01*
X120835000Y-60485000D02*
X120835000Y-61435000D01*
G75*
G02*
X120585000Y-61685000I-250000J0D01*
G01*
X120085000Y-61685000D01*
G75*
G02*
X119835000Y-61435000I0J250000D01*
G01*
X119835000Y-60485000D01*
G75*
G02*
X120085000Y-60235000I250000J0D01*
G01*
X120585000Y-60235000D01*
G75*
G02*
X120835000Y-60485000I0J-250000D01*
G01*
G37*
G36*
G01*
X81395000Y-104110000D02*
X81395000Y-105010000D01*
G75*
G02*
X81145000Y-105260000I-250000J0D01*
G01*
X80620000Y-105260000D01*
G75*
G02*
X80370000Y-105010000I0J250000D01*
G01*
X80370000Y-104110000D01*
G75*
G02*
X80620000Y-103860000I250000J0D01*
G01*
X81145000Y-103860000D01*
G75*
G02*
X81395000Y-104110000I0J-250000D01*
G01*
G37*
G36*
G01*
X79570000Y-104110000D02*
X79570000Y-105010000D01*
G75*
G02*
X79320000Y-105260000I-250000J0D01*
G01*
X78795000Y-105260000D01*
G75*
G02*
X78545000Y-105010000I0J250000D01*
G01*
X78545000Y-104110000D01*
G75*
G02*
X78795000Y-103860000I250000J0D01*
G01*
X79320000Y-103860000D01*
G75*
G02*
X79570000Y-104110000I0J-250000D01*
G01*
G37*
X79285000Y-67690000D03*
X79285000Y-64390000D03*
X74385000Y-64390000D03*
X74385000Y-67690000D03*
D19*
X131120000Y-105840000D03*
X133040000Y-105840000D03*
X132080000Y-104140000D03*
G36*
G01*
X134165000Y-60485000D02*
X134165000Y-61435000D01*
G75*
G02*
X133915000Y-61685000I-250000J0D01*
G01*
X133415000Y-61685000D01*
G75*
G02*
X133165000Y-61435000I0J250000D01*
G01*
X133165000Y-60485000D01*
G75*
G02*
X133415000Y-60235000I250000J0D01*
G01*
X133915000Y-60235000D01*
G75*
G02*
X134165000Y-60485000I0J-250000D01*
G01*
G37*
G36*
G01*
X132265000Y-60485000D02*
X132265000Y-61435000D01*
G75*
G02*
X132015000Y-61685000I-250000J0D01*
G01*
X131515000Y-61685000D01*
G75*
G02*
X131265000Y-61435000I0J250000D01*
G01*
X131265000Y-60485000D01*
G75*
G02*
X131515000Y-60235000I250000J0D01*
G01*
X132015000Y-60235000D01*
G75*
G02*
X132265000Y-60485000I0J-250000D01*
G01*
G37*
G36*
G01*
X77015000Y-60485000D02*
X77015000Y-61435000D01*
G75*
G02*
X76765000Y-61685000I-250000J0D01*
G01*
X76265000Y-61685000D01*
G75*
G02*
X76015000Y-61435000I0J250000D01*
G01*
X76015000Y-60485000D01*
G75*
G02*
X76265000Y-60235000I250000J0D01*
G01*
X76765000Y-60235000D01*
G75*
G02*
X77015000Y-60485000I0J-250000D01*
G01*
G37*
G36*
G01*
X75115000Y-60485000D02*
X75115000Y-61435000D01*
G75*
G02*
X74865000Y-61685000I-250000J0D01*
G01*
X74365000Y-61685000D01*
G75*
G02*
X74115000Y-61435000I0J250000D01*
G01*
X74115000Y-60485000D01*
G75*
G02*
X74365000Y-60235000I250000J0D01*
G01*
X74865000Y-60235000D01*
G75*
G02*
X75115000Y-60485000I0J-250000D01*
G01*
G37*
M02*
